<?xml version="1.0" standalone="no"?>
<!DOCTYPE svg PUBLIC "-//W3C//DTD SVG 20010904//EN"
 "http://www.w3.org/TR/2001/REC-SVG-20010904/DTD/svg10.dtd">
<svg version="1.0" xmlns="http://www.w3.org/2000/svg"
 width="309.000000pt" height="309.000000pt" viewBox="0 0 309.000000 309.000000"
 preserveAspectRatio="xMidYMid meet">
<metadata>
Created by potrace 1.11, written by Peter Selinger 2001-2013
</metadata>
<g transform="translate(0.000000,309.000000) scale(0.100000,-0.100000)"
fill="#000000" stroke="none">
<path d="M792 2277 c-571 -571 -722 -727 -722 -747 0 -20 151 -176 723 -748
620 -620 727 -723 749 -720 17 2 236 216 752 735 l728 733 -728 735 c-581 586
-734 735 -754 735 -20 0 -173 -148 -748 -723z m823 503 l70 -70 -205 -205
-205 -205 -145 0 -145 0 275 275 c151 151 277 275 280 275 3 0 37 -32 75 -70z
m235 -235 l75 -75 -205 -205 -205 -205 -385 0 -384 0 54 55 54 55 231 0 230 0
225 225 c124 124 227 225 230 225 3 0 39 -34 80 -75z m235 -235 l70 -70 -205
-205 -205 -205 -615 0 -614 0 54 55 54 55 472 0 471 0 213 220 c117 121 217
220 224 220 6 0 43 -32 81 -70z m232 -232 l72 -73 -200 -207 -201 -208 -856 0
-856 0 54 55 54 55 701 0 700 0 225 225 c124 124 227 225 230 225 3 0 38 -33
77 -72z m231 -241 l72 -72 -203 -202 -202 -202 -913 -2 -913 -2 -57 56 -57 57
880 0 880 0 213 220 c118 121 217 220 221 220 3 0 39 -33 79 -73z m102 -512
l-205 -205 -910 0 -911 0 -54 55 -54 55 869 0 870 0 225 225 225 225 75 -75
75 -75 -205 -205z m-385 -385 l-59 -60 -671 0 -671 0 -59 60 -59 60 789 0 789
0 -59 -60z m-235 -235 l-54 -55 -441 0 -441 0 -54 55 -54 55 549 0 549 0 -54
-55z m-180 -182 c0 -4 -21 -29 -47 -55 l-47 -48 -216 0 -216 0 -54 55 -54 55
317 0 c174 0 317 -3 317 -7z m-268 -275 l-42 -43 -42 43 -43 42 85 0 85 0 -43
-42z"/>
</g>
</svg>
